<?xml version="1.0" encoding="UTF-8"?>
<svg width="1148px" height="1218px" viewBox="0 0 1148 1218" version="1.1" xmlns="http://www.w3.org/2000/svg" xmlns:xlink="http://www.w3.org/1999/xlink">
    <title>编组 8</title>
    <g id="guidline-和其他宣发" stroke="none" stroke-width="1" fill="none" fill-rule="evenodd">
        <g id="color-coin" transform="translate(-331.000000, -1749.000000)">
            <g id="编组-8" transform="translate(331.000000, 1749.000000)">
                <g id="编组" fill="#3506EB">
                    <ellipse id="椭圆形" cx="574" cy="609" rx="574" ry="609"></ellipse>
                </g>
                <g id="编组-6" transform="translate(75.000000, 302.000000)" fill="#FFFFFF">
                    <g id="编组-5" transform="translate(0.000000, -0.000000)">
                        <polygon id="路径-9" points="91.0581816 60.436148 122.326586 0 859.134043 0 899.639383 60.436148 798.968966 126.579869 712.221257 126.579869 681.143923 60.436148 582.370892 60.436148 548.247582 166.925977 444.393512 166.925977 407.369105 60.436148 291.654214 60.436148 267.374036 116.614062 178.966115 116.614062"></polygon>
                        <polygon id="路径-9" transform="translate(276.321809, 444.199929) rotate(-122.000000) translate(-276.321809, -444.199929) " points="-120.338258 391.251509 -104.597648 366.061268 632.450928 366.211937 672.981876 426.636599 572.292034 492.738099 485.515938 492.72036 454.414914 426.591919 355.609559 426.571721 322.00598 522.338591 218.117923 522.317354 180.550504 426.535935 64.7977444 426.512273 -59.2186811 429.443259"></polygon>
                        <polygon id="路径-9" transform="translate(706.678191, 444.199929) scale(-1, 1) rotate(-122.000000) translate(-706.678191, -444.199929) " points="310.018124 391.251509 325.758733 366.061268 1062.80731 366.211937 1103.33826 426.636599 1002.64842 492.738099 915.872319 492.72036 884.771296 426.591919 785.965941 426.571721 752.362361 522.338591 648.474304 522.317354 610.906885 426.535935 495.154126 426.512273 371.1377 429.443259"></polygon>
                    </g>
                    <path d="M426.904462,210.900602 L557.958765,213.189204 L606.524163,300.843154 L542.917011,300.843154 L524.873845,268.277824 L458.04756,267.110836 L423.624533,324.426441 L456.027203,382.909004 L522.853494,384.075992 L549.418566,339.843154 L614.319839,339.843154 L553.996581,440.286226 L422.942284,437.997624 L359.395927,323.304796 L426.904462,210.900602 Z" id="形状结合" stroke="#979797" stroke-width="1.5"></path>
                </g>
            </g>
        </g>
    </g>
</svg>